# xmcd
#
# Track frame offsets:
#	150
#	23351
#	42654
#	60061
#	80711
#	100350
#	120954
#	138844
#	157298
#	176210
#	193748
#	213054
#	235366
#
# Disc length: 3488 seconds
#
# Revision: 14
# Processed by: cddbd v1.5.2PL0 Copyright (c) Steve Scherf et al.
# Submitted via: Jack! The Knife 20 Magnifico
#
DISCID=ab0d9e0d
DTITLE=Megadeth - Th1rt3en
DYEAR=2011
DGENRE=Metal
TTITLE0=Sudden Death
TTITLE1=Public Enemy No.1
TTITLE2=Whose Life (Is It Anyways?)
TTITLE3=We The People
TTITLE4=Guns, Drugs and Money
TTITLE5=Never Dead
TTITLE6=New World Order
TTITLE7=Fast Lane
TTITLE8=Black Swan
TTITLE9=Wrecker
TTITLE10=Millennium Of The Blind
TTITLE11=Deadly Nightshade
TTITLE12=13
EXTD=Johnny K and Dave Mustaine
EXTT0=Dave Mustaine
EXTT1=Mustaine, Johnny K
EXTT2=Dave Mustaine
EXTT3=Mustaine, Johnny K
EXTT4=Mustaine, Johnny K
EXTT5=Dave Mustaine
EXTT6=Mustaine, Ellefson, Friedman
EXTT7=Mustaine, Johnny K
EXTT8=Dave Mustaine
EXTT9=Dave Mustaine
EXTT10=Mustaine, Johnny K, Friedman
EXTT11=Dave Mustaine
EXTT12=Mustaine, Johnny K
PLAYORDER=
